Coordinates
version=1
nRows=20
nColumns=38
inDegrees=no

Units are S.I. units (second, meters, Newtons, ...)
If the header above contains a line with 'inDegrees', this indicates whether rotational values are in degrees (yes) or radians (no).

endheader
time	pelvis_tilt	pelvis_list	pelvis_rotation	pelvis_tx	pelvis_ty	pelvis_tz	hip_flexion_r	hip_adduction_r	hip_rotation_r	knee_angle_r	ankle_angle_r	subtalar_angle_r	mtp_angle_r	hip_flexion_l	hip_adduction_l	hip_rotation_l	knee_angle_l	ankle_angle_l	subtalar_angle_l	mtp_angle_l	lumbar_extension	lumbar_bending	lumbar_rotation	arm_flex_r	arm_add_r	arm_rot_r	elbow_flex_r	pro_sup_r	wrist_flex_r	wrist_dev_r	arm_flex_l	arm_add_l	arm_rot_l	elbow_flex_l	pro_sup_l	wrist_flex_l	wrist_dev_l
0	3.0906	1.14062	-1.45118	0.844029	-0.562862	0.950174	-0.482341	0.0769881	-0.263362	0.289387	-0.12884	0	0	0.0978179	-0.14392	-0.260053	0.813935	-0.234161	0	0	-0.466673	0.0783726	0.263107	-0.136133	-0.779254	-0.0499873	1.62008	0.543568	0	0	0.66726	-0.519601	0.791852	1.0961	0.638153	0	0
0.01	3.09431	1.15629	-1.44837	0.843224	-0.553879	0.94849	-0.478886	0.0779912	-0.260923	0.284237	-0.122355	0	0	0.0922282	-0.108029	-0.193962	0.703511	-0.215634	0	0	-0.452772	0.0766122	0.255774	-0.131788	-0.776474	-0.0485685	1.61634	0.543711	0	0	0.669466	-0.519153	0.79348	1.09324	0.638032	0	0
0.02	3.0893	1.16816	-1.43941	0.842449	-0.544174	0.946543	-0.479801	0.0817436	-0.258319	0.280146	-0.116686	0	0	0.0868923	-0.0957347	-0.173543	0.607386	-0.210673	0	0	-0.440382	0.0785231	0.251523	-0.129057	-0.775243	-0.047524	1.61395	0.546019	0	0	0.669585	-0.5189	0.793258	1.09221	0.63889	0	0
0.03	3.08629	1.18281	-1.43098	0.841604	-0.534532	0.944547	-0.476495	0.0845378	-0.255277	0.278995	-0.109354	0	0	0.0663287	-0.0693029	-0.100889	0.470655	-0.212601	0	0	-0.4252	0.0792733	0.245123	-0.124829	-0.772426	-0.04505	1.60958	0.549943	0	0	0.669153	-0.519082	0.792965	1.09088	0.641192	0	0
0.04	3.07446	1.19342	-1.41487	0.840567	-0.524256	0.942235	-0.478676	0.0905535	-0.253835	0.276036	-0.101885	0	0	0.0603563	-0.0672068	-0.0944029	0.384527	-0.219673	0	0	-0.412081	0.0840604	0.241241	-0.124297	-0.772491	-0.0444088	1.60815	0.551319	0	0	0.669014	-0.51954	0.794874	1.09107	0.642196	0	0
0.05	3.06115	1.2045	-1.39819	0.839401	-0.513871	0.939911	-0.479553	0.0955898	-0.251365	0.275292	-0.0939317	0	0	0.0564334	-0.0667229	-0.0937346	0.307837	-0.227744	0	0	-0.398052	0.089059	0.237936	-0.123756	-0.772739	-0.0434623	1.60623	0.552244	0	0	0.66782	-0.518853	0.795117	1.09016	0.644295	0	0
0.06	3.04765	1.21519	-1.38178	0.838213	-0.503416	0.937659	-0.479977	0.0995518	-0.247751	0.276216	-0.0874213	0	0	0.0521088	-0.066345	-0.0937508	0.237685	-0.236544	0	0	-0.384256	0.0937364	0.234744	-0.122667	-0.772768	-0.0419889	1.60374	0.553776	0	0	0.665933	-0.517681	0.793741	1.08899	0.647587	0	0
0.07	3.03319	1.22542	-1.36466	0.83698	-0.492861	0.935453	-0.479969	0.103111	-0.245366	0.278078	-0.0832714	0	0	0.0468948	-0.0662481	-0.0907598	0.173823	-0.247599	0	0	-0.370685	0.0984069	0.231515	-0.121647	-0.77222	-0.0407837	1.6012	0.555206	0	0	0.663274	-0.516945	0.791947	1.08863	0.650043	0	0
0.08	3.01791	1.23401	-1.34714	0.835625	-0.482251	0.933291	-0.480202	0.106312	-0.243876	0.282563	-0.0805982	0	0	0.0410586	-0.0671085	-0.0864302	0.122613	-0.25769	0	0	-0.358806	0.103415	0.228995	-0.121788	-0.772227	-0.0409451	1.59985	0.555985	0	0	0.660781	-0.516164	0.79051	1.08894	0.651579	0	0
0.09	3.00505	1.23984	-1.33315	0.834225	-0.471605	0.931267	-0.48105	0.107773	-0.240671	0.292561	-0.0769288	0	0	0.0356617	-0.0682226	-0.0857378	0.0941068	-0.264441	0	0	-0.350239	0.10772	0.227735	-0.122772	-0.773184	-0.0421879	1.60009	0.556332	0	0	0.659191	-0.515467	0.789589	1.08982	0.652312	0	0
0.1	2.99861	1.24164	-1.32688	0.832899	-0.460963	0.929688	-0.48538	0.106881	-0.237945	0.304417	-0.0743039	0	0	0.0301442	-0.0684055	-0.090991	0.0926511	-0.267498	0	0	-0.34677	0.110193	0.227864	-0.123859	-0.774653	-0.0437968	1.60118	0.556345	0	0	0.659021	-0.514777	0.789595	1.09064	0.652759	0	0
0.11	2.99997	1.24056	-1.32921	0.831556	-0.450277	0.928647	-0.492457	0.103269	-0.236304	0.316942	-0.0734932	0	0	0.024511	-0.0664712	-0.0996409	0.113403	-0.267498	0	0	-0.347511	0.110449	0.22909	-0.125925	-0.776148	-0.0465131	1.60308	0.556108	0	0	0.659565	-0.513753	0.789777	1.09137	0.652211	0	0
0.12	3.00782	1.23807	-1.33817	0.830166	-0.439451	0.927922	-0.500575	0.0977261	-0.233116	0.331025	-0.0755727	0	0	0.0172656	-0.0617824	-0.10572	0.143976	-0.262836	0	0	-0.350288	0.108528	0.230233	-0.128582	-0.777112	-0.0497908	1.6053	0.55601	0	0	0.660482	-0.513639	0.791168	1.09319	0.651416	0	0
0.13	3.01988	1.23541	-1.35064	0.828575	-0.428379	0.927239	-0.508272	0.0907507	-0.229171	0.347224	-0.0788903	0	0	0.00911126	-0.0550957	-0.109268	0.170815	-0.255071	0	0	-0.353162	0.105295	0.230702	-0.132635	-0.778043	-0.0539178	1.60823	0.555842	0	0	0.66151	-0.51414	0.793119	1.09591	0.65077	0	0
0.14	3.03461	1.23332	-1.36483	0.826844	-0.417173	0.92665	-0.514693	0.0834875	-0.223282	0.36545	-0.0829487	0	0	0.00137577	-0.047024	-0.113051	0.187278	-0.252938	0	0	-0.355488	0.10087	0.230238	-0.137391	-0.778115	-0.0586743	1.61091	0.555495	0	0	0.662513	-0.514847	0.7952	1.09897	0.650634	0	0
0.15	3.0513	1.23255	-1.37957	0.824951	-0.40589	0.926247	-0.518441	0.0756831	-0.216163	0.38612	-0.0893374	0	0	-0.00496233	-0.0384558	-0.116507	0.193455	-0.265858	0	0	-0.356401	0.0954233	0.228574	-0.143536	-0.776369	-0.0645411	1.61284	0.555812	0	0	0.66352	-0.515466	0.797971	1.10179	0.651369	0	0
0.16	3.06902	1.23439	-1.39319	0.822802	-0.394344	0.925989	-0.518093	0.0669406	-0.20908	0.407798	-0.101697	0	0	-0.0098344	-0.0296694	-0.117513	0.192547	-0.293714	0	0	-0.353498	0.0894277	0.22454	-0.150523	-0.772362	-0.0702601	1.61299	0.558138	0	0	0.663339	-0.515677	0.800634	1.10331	0.65251	0	0
0.17	3.08714	1.23755	-1.40616	0.820482	-0.382642	0.925731	-0.513969	0.0578615	-0.202878	0.43403	-0.117392	0	0	-0.0136859	-0.0208354	-0.119192	0.192139	-0.323165	0	0	-0.348566	0.0833201	0.219569	-0.15835	-0.767655	-0.0761716	1.6127	0.561517	0	0	0.662438	-0.515125	0.802613	1.10386	0.654385	0	0
0.18	3.10499	1.24009	-1.41727	0.817775	-0.37077	0.925482	-0.508447	0.0483239	-0.201421	0.464438	-0.135932	0	0	-0.0170616	-0.0126015	-0.122925	0.19745	-0.346439	0	0	-0.343628	0.078402	0.213638	-0.168047	-0.763451	-0.083348	1.61348	0.565407	0	0	0.660982	-0.513713	0.804003	1.1042	0.656734	0	0
0.19	3.12117	1.24101	-1.42549	0.81482	-0.358851	0.925383	-0.501389	0.038147	-0.203813	0.50074	-0.159737	0	0	-0.0204713	-0.0065715	-0.127072	0.210475	-0.361621	0	0	-0.339757	0.0749936	0.206659	-0.177822	-0.759718	-0.0903422	1.61463	0.568394	0	0	0.659271	-0.511842	0.805252	1.1041	0.659076	0	0
